<svg xmlns="http://www.w3.org/2000/svg" width="26" height="32" viewBox="0 0 26 32">
    <path fill="#D5D5EA" fill-rule="nonzero" d="M17.87 4.863C19.122 3.574 19.97 1.785 19.74 0c-1.807.062-3.996 1.018-5.293 2.307-1.162 1.141-2.18 2.965-1.908 4.715 2.015.13 4.075-.872 5.33-2.159zm3.846 12.325c-.038-4 3.299-5.922 3.447-6.015-1.876-2.717-4.798-3.09-5.839-3.131-2.488-.25-4.85 1.447-6.114 1.447-1.258 0-3.203-1.414-5.267-1.376-2.712.043-5.212 1.56-6.605 3.964-2.818 4.836-.722 12 2.024 15.924 1.342 1.92 2.94 4.075 5.039 3.997 2.026-.078 2.79-1.294 5.234-1.294 2.445 0 3.13 1.294 5.269 1.255 2.176-.039 3.554-1.958 4.885-3.884 1.54-2.227 2.175-4.384 2.211-4.493-.047-.026-4.239-1.61-4.284-6.394z"/>
</svg>
