<svg xmlns="http://www.w3.org/2000/svg" width="27" height="30" viewBox="0 0 27 30">
    <g fill="#D5D5EA" fill-rule="evenodd">
        <path d="M14.56 15.006L1.158 28.446A2.947 2.947 0 0 1 .036 26.11V3.927a2.947 2.947 0 0 1 1.12-2.338l13.405 13.417zM27 15.006a2.969 2.969 0 0 1-1.464 2.571l-4.209 2.385-4.963-4.956 4.963-4.955 4.209 2.407A2.96 2.96 0 0 1 27 15.006zM20.426 20.882l-15.28 8.719a2.922 2.922 0 0 1-1.373.35c-.5.01-.992-.128-1.418-.397a3.38 3.38 0 0 1-.297-.187l13.404-13.44 4.964 4.955zM20.426 9.13l-4.964 4.956L2.058.669c.096-.068.195-.13.297-.187A2.717 2.717 0 0 1 5.146.435l15.28 8.695z"/>
    </g>
</svg>
