<svg xmlns="http://www.w3.org/2000/svg" width="18" height="33" viewBox="0 0 18 33">
    <g fill="none" fill-rule="evenodd">
        <path fill="#D5D5EA" d="M15.758 33H2.018C.994 33 .162 32.132.162 31.063V1.937C.161.867.993 0 2.02 0h13.74c1.025 0 1.856.868 1.856 1.937v29.125c.001 1.07-.83 1.938-1.857 1.938z"/>
        <path fill="#F2F2FD" d="M.161 3.414h17.455v22.759H.161z"/>
        <ellipse cx="8.889" cy="29.586" fill="#F2F2FD" rx="1.636" ry="1.707"/>
        <path fill="#F2F2FD" d="M8.889 2.276H6.707a.557.557 0 0 1-.546-.57c0-.314.244-.568.546-.568h2.182c.301 0 .545.254.545.569a.557.557 0 0 1-.545.569zM11.07 2.276h-.545a.557.557 0 0 1-.545-.57c0-.314.243-.568.545-.568h.546c.301 0 .545.254.545.569a.557.557 0 0 1-.545.569z"/>
    </g>
</svg>
